<svg version="1.1" xmlns="http://www.w3.org/2000/svg" xmlns:xlink="http://www.w3.org/1999/xlink" width="100" height="340" fill="none" stroke="black"><defs><style>text {font-family: Arial, Helvetica, sans-serif;text-anchor: end; fill: black;}</style></defs><text id="legend-txt" x="64" y="15">Time [m]</text><g class="legend" transform="translate(20, 20)"><g class="legendCells"><g class="cell" transform="translate(0, 0)"><rect class="swatch" height="15" width="15" style="fill: #fde725;"></rect><text class="label" transform="translate( 45, 12.5)">30</text></g><g class="cell" transform="translate(0, 21)"><rect class="swatch" height="15" width="15" style="fill: #d0e11c;"></rect><text class="label" transform="translate( 45, 12.5)">60</text></g><g class="cell" transform="translate(0, 42)"><rect class="swatch" height="15" width="15" style="fill: #a0da39;"></rect><text class="label" transform="translate( 45, 12.5)">90</text></g><g class="cell" transform="translate(0, 63)"><rect class="swatch" height="15" width="15" style="fill: #73d056;"></rect><text class="label" transform="translate( 45, 12.5)">120</text></g><g class="cell" transform="translate(0, 84)"><rect class="swatch" height="15" width="15" style="fill: #4ac16d;"></rect><text class="label" transform="translate( 45, 12.5)">150</text></g><g class="cell" transform="translate(0, 105)"><rect class="swatch" height="15" width="15" style="fill: #2db27d;"></rect><text class="label" transform="translate( 45, 12.5)">180</text></g><g class="cell" transform="translate(0, 126)"><rect class="swatch" height="15" width="15" style="fill: #1fa187;"></rect><text class="label" transform="translate( 45, 12.5)">210</text></g><g class="cell" transform="translate(0, 147)"><rect class="swatch" height="15" width="15" style="fill: #21918c;"></rect><text class="label" transform="translate( 45, 12.5)">240</text></g><g class="cell" transform="translate(0, 168)"><rect class="swatch" height="15" width="15" style="fill: #277f8e;"></rect><text class="label" transform="translate( 45, 12.5)">270</text></g><g class="cell" transform="translate(0, 189)"><rect class="swatch" height="15" width="15" style="fill: #2e6e8e;"></rect><text class="label" transform="translate( 45, 12.5)">300</text></g><g class="cell" transform="translate(0, 210)"><rect class="swatch" height="15" width="15" style="fill: #365c8d;"></rect><text class="label" transform="translate( 45, 12.5)">330</text></g><g class="cell" transform="translate(0, 231)"><rect class="swatch" height="15" width="15" style="fill: #3f4788;"></rect><text class="label" transform="translate( 45, 12.5)">360</text></g><g class="cell" transform="translate(0, 252)"><rect class="swatch" height="15" width="15" style="fill: #46327e;"></rect><text class="label" transform="translate( 45, 12.5)">390</text></g><g class="cell" transform="translate(0, 273)"><rect class="swatch" height="15" width="15" style="fill: #481b6d;"></rect><text class="label" transform="translate( 45, 12.5)">420</text></g><g class="cell" transform="translate(0, 294)"><rect class="swatch" height="15" width="15" style="fill: #440154;"></rect><text class="label" transform="translate( 45, 12.5)">450</text></g></g></g></svg>