<svg version="1.1" xmlns="http://www.w3.org/2000/svg" xmlns:xlink="http://www.w3.org/1999/xlink" width="100" height="530" fill="none" stroke="black"><defs><style>text {font-family: Arial, Helvetica, sans-serif;text-anchor: end; fill: black;}</style></defs><text id="legend-txt" x="64" y="15">Time [m]</text><g class="legend" transform="translate(20, 20)"><g class="legendCells"><g class="cell" transform="translate(0, 0)"><rect class="swatch" height="15" width="15" style="fill: #fde725;"></rect><text class="label" transform="translate( 45, 12.5)">30</text></g><g class="cell" transform="translate(0, 21)"><rect class="swatch" height="15" width="15" style="fill: #e2e418;"></rect><text class="label" transform="translate( 45, 12.5)">60</text></g><g class="cell" transform="translate(0, 42)"><rect class="swatch" height="15" width="15" style="fill: #c5e021;"></rect><text class="label" transform="translate( 45, 12.5)">90</text></g><g class="cell" transform="translate(0, 63)"><rect class="swatch" height="15" width="15" style="fill: #a8db34;"></rect><text class="label" transform="translate( 45, 12.5)">120</text></g><g class="cell" transform="translate(0, 84)"><rect class="swatch" height="15" width="15" style="fill: #8bd646;"></rect><text class="label" transform="translate( 45, 12.5)">150</text></g><g class="cell" transform="translate(0, 105)"><rect class="swatch" height="15" width="15" style="fill: #70cf57;"></rect><text class="label" transform="translate( 45, 12.5)">180</text></g><g class="cell" transform="translate(0, 126)"><rect class="swatch" height="15" width="15" style="fill: #58c765;"></rect><text class="label" transform="translate( 45, 12.5)">210</text></g><g class="cell" transform="translate(0, 147)"><rect class="swatch" height="15" width="15" style="fill: #42be71;"></rect><text class="label" transform="translate( 45, 12.5)">240</text></g><g class="cell" transform="translate(0, 168)"><rect class="swatch" height="15" width="15" style="fill: #2fb47c;"></rect><text class="label" transform="translate( 45, 12.5)">270</text></g><g class="cell" transform="translate(0, 189)"><rect class="swatch" height="15" width="15" style="fill: #24aa83;"></rect><text class="label" transform="translate( 45, 12.5)">300</text></g><g class="cell" transform="translate(0, 210)"><rect class="swatch" height="15" width="15" style="fill: #1fa088;"></rect><text class="label" transform="translate( 45, 12.5)">330</text></g><g class="cell" transform="translate(0, 231)"><rect class="swatch" height="15" width="15" style="fill: #1f958b;"></rect><text class="label" transform="translate( 45, 12.5)">360</text></g><g class="cell" transform="translate(0, 252)"><rect class="swatch" height="15" width="15" style="fill: #228b8d;"></rect><text class="label" transform="translate( 45, 12.5)">390</text></g><g class="cell" transform="translate(0, 273)"><rect class="swatch" height="15" width="15" style="fill: #26818e;"></rect><text class="label" transform="translate( 45, 12.5)">420</text></g><g class="cell" transform="translate(0, 294)"><rect class="swatch" height="15" width="15" style="fill: #2a768e;"></rect><text class="label" transform="translate( 45, 12.5)">450</text></g><g class="cell" transform="translate(0, 315)"><rect class="swatch" height="15" width="15" style="fill: #2f6c8e;"></rect><text class="label" transform="translate( 45, 12.5)">480</text></g><g class="cell" transform="translate(0, 336)"><rect class="swatch" height="15" width="15" style="fill: #34608d;"></rect><text class="label" transform="translate( 45, 12.5)">510</text></g><g class="cell" transform="translate(0, 357)"><rect class="swatch" height="15" width="15" style="fill: #3a548c;"></rect><text class="label" transform="translate( 45, 12.5)">540</text></g><g class="cell" transform="translate(0, 378)"><rect class="swatch" height="15" width="15" style="fill: #3f4889;"></rect><text class="label" transform="translate( 45, 12.5)">570</text></g><g class="cell" transform="translate(0, 399)"><rect class="swatch" height="15" width="15" style="fill: #443b84;"></rect><text class="label" transform="translate( 45, 12.5)">600</text></g><g class="cell" transform="translate(0, 420)"><rect class="swatch" height="15" width="15" style="fill: #472e7c;"></rect><text class="label" transform="translate( 45, 12.5)">630</text></g><g class="cell" transform="translate(0, 441)"><rect class="swatch" height="15" width="15" style="fill: #482071;"></rect><text class="label" transform="translate( 45, 12.5)">660</text></g><g class="cell" transform="translate(0, 462)"><rect class="swatch" height="15" width="15" style="fill: #471164;"></rect><text class="label" transform="translate( 45, 12.5)">690</text></g><g class="cell" transform="translate(0, 483)"><rect class="swatch" height="15" width="15" style="fill: #440154;"></rect><text class="label" transform="translate( 45, 12.5)">720</text></g></g></g></svg>